<mxfile host="app.diagrams.net" modified="2022-10-21T10:04:13.332Z" agent="5.0 (Windows NT 6.1; Win64; x64) AppleWebKit/537.36 (KHTML, like Gecko) Chrome/106.0.0.0 Safari/537.36" etag="QuwEWQMBHqS_TO25uTKf" version="20.4.2" type="github">
  <diagram id="CSHMHOhT1F40CPSZBinU" name="第 1 页">
    <mxGraphModel dx="1108" dy="450" grid="1" gridSize="10" guides="1" tooltips="1" connect="1" arrows="1" fold="1" page="1" pageScale="1" pageWidth="827" pageHeight="1169" math="0" shadow="0">
      <root>
        <mxCell id="0" />
        <mxCell id="1" parent="0" />
        <mxCell id="dLf7UNA71OGZmiSOI_5H-50" value="" style="rounded=0;whiteSpace=wrap;html=1;" parent="1" vertex="1">
          <mxGeometry x="60" y="720" width="640" height="320" as="geometry" />
        </mxCell>
        <mxCell id="b52GCULrHhmh10Wu_USz-11" style="edgeStyle=orthogonalEdgeStyle;rounded=0;orthogonalLoop=1;jettySize=auto;html=1;entryX=0;entryY=0.5;entryDx=0;entryDy=0;" edge="1" parent="1" source="dLf7UNA71OGZmiSOI_5H-2" target="b52GCULrHhmh10Wu_USz-8">
          <mxGeometry relative="1" as="geometry" />
        </mxCell>
        <mxCell id="dLf7UNA71OGZmiSOI_5H-2" value="Actor" style="shape=umlActor;verticalLabelPosition=bottom;verticalAlign=top;html=1;outlineConnect=0;" parent="1" vertex="1">
          <mxGeometry x="80" y="60" width="30" height="60" as="geometry" />
        </mxCell>
        <mxCell id="b52GCULrHhmh10Wu_USz-12" style="edgeStyle=orthogonalEdgeStyle;rounded=0;orthogonalLoop=1;jettySize=auto;html=1;entryX=0;entryY=0.5;entryDx=0;entryDy=0;" edge="1" parent="1" source="dLf7UNA71OGZmiSOI_5H-4" target="b52GCULrHhmh10Wu_USz-8">
          <mxGeometry relative="1" as="geometry">
            <mxPoint x="170" y="150" as="targetPoint" />
          </mxGeometry>
        </mxCell>
        <mxCell id="dLf7UNA71OGZmiSOI_5H-4" value="" style="points=[];aspect=fixed;html=1;align=center;shadow=0;dashed=0;image;image=img/lib/allied_telesis/computer_and_terminals/Smartphone.svg;" parent="1" vertex="1">
          <mxGeometry x="85.1" y="200" width="19.8" height="43.199999999999996" as="geometry" />
        </mxCell>
        <mxCell id="dLf7UNA71OGZmiSOI_5H-10" value="AuthManageService" style="rounded=1;whiteSpace=wrap;html=1;" parent="1" vertex="1">
          <mxGeometry x="110" y="770" width="120" height="60" as="geometry" />
        </mxCell>
        <mxCell id="dLf7UNA71OGZmiSOI_5H-12" value="ScanLoginService" style="rounded=1;whiteSpace=wrap;html=1;" parent="1" vertex="1">
          <mxGeometry x="110" y="852.5" width="120" height="60" as="geometry" />
        </mxCell>
        <mxCell id="dLf7UNA71OGZmiSOI_5H-13" value="ThirdLoginService" style="rounded=1;whiteSpace=wrap;html=1;" parent="1" vertex="1">
          <mxGeometry x="110" y="930" width="120" height="60" as="geometry" />
        </mxCell>
        <mxCell id="dLf7UNA71OGZmiSOI_5H-42" value="&lt;span style=&quot;font-weight: 400;&quot;&gt;AbstractLoginService&lt;/span&gt;" style="swimlane;fontStyle=1;align=center;verticalAlign=middle;childLayout=stackLayout;horizontal=1;startSize=29;horizontalStack=0;resizeParent=1;resizeParentMax=0;resizeLast=0;collapsible=0;marginBottom=0;html=1;" parent="1" vertex="1">
          <mxGeometry x="330" y="841" width="140" height="79" as="geometry" />
        </mxCell>
        <mxCell id="dLf7UNA71OGZmiSOI_5H-45" value="getVerifyCode()" style="text;html=1;strokeColor=none;fillColor=none;align=left;verticalAlign=middle;spacingLeft=4;spacingRight=4;overflow=hidden;rotatable=0;points=[[0,0.5],[1,0.5]];portConstraint=eastwest;" parent="dLf7UNA71OGZmiSOI_5H-42" vertex="1">
          <mxGeometry y="29" width="140" height="25" as="geometry" />
        </mxCell>
        <mxCell id="dLf7UNA71OGZmiSOI_5H-44" value="oauth2Login()" style="text;html=1;strokeColor=none;fillColor=none;align=left;verticalAlign=middle;spacingLeft=4;spacingRight=4;overflow=hidden;rotatable=0;points=[[0,0.5],[1,0.5]];portConstraint=eastwest;" parent="dLf7UNA71OGZmiSOI_5H-42" vertex="1">
          <mxGeometry y="54" width="140" height="25" as="geometry" />
        </mxCell>
        <mxCell id="dLf7UNA71OGZmiSOI_5H-46" style="edgeStyle=orthogonalEdgeStyle;rounded=0;orthogonalLoop=1;jettySize=auto;html=1;entryX=1;entryY=0.5;entryDx=0;entryDy=0;" parent="1" source="dLf7UNA71OGZmiSOI_5H-45" target="dLf7UNA71OGZmiSOI_5H-10" edge="1">
          <mxGeometry relative="1" as="geometry" />
        </mxCell>
        <mxCell id="dLf7UNA71OGZmiSOI_5H-47" style="edgeStyle=orthogonalEdgeStyle;rounded=0;orthogonalLoop=1;jettySize=auto;html=1;entryX=1;entryY=0.5;entryDx=0;entryDy=0;" parent="1" source="dLf7UNA71OGZmiSOI_5H-45" target="dLf7UNA71OGZmiSOI_5H-12" edge="1">
          <mxGeometry relative="1" as="geometry" />
        </mxCell>
        <mxCell id="dLf7UNA71OGZmiSOI_5H-48" style="edgeStyle=orthogonalEdgeStyle;rounded=0;orthogonalLoop=1;jettySize=auto;html=1;entryX=1;entryY=0.5;entryDx=0;entryDy=0;" parent="1" source="dLf7UNA71OGZmiSOI_5H-45" target="dLf7UNA71OGZmiSOI_5H-13" edge="1">
          <mxGeometry relative="1" as="geometry" />
        </mxCell>
        <mxCell id="dLf7UNA71OGZmiSOI_5H-51" value="MSS登录接口抽象" style="text;html=1;strokeColor=none;fillColor=none;align=center;verticalAlign=middle;whiteSpace=wrap;rounded=0;" parent="1" vertex="1">
          <mxGeometry x="70" y="730" width="120" height="30" as="geometry" />
        </mxCell>
        <mxCell id="dLf7UNA71OGZmiSOI_5H-57" value="&lt;span style=&quot;font-weight: 400;&quot;&gt;LoginService&lt;/span&gt;" style="swimlane;fontStyle=1;align=center;verticalAlign=middle;childLayout=stackLayout;horizontal=1;startSize=29;horizontalStack=0;resizeParent=1;resizeParentMax=0;resizeLast=0;collapsible=0;marginBottom=0;html=1;" parent="1" vertex="1">
          <mxGeometry x="530" y="840.5" width="140" height="79" as="geometry" />
        </mxCell>
        <mxCell id="dLf7UNA71OGZmiSOI_5H-58" value="login()" style="text;html=1;strokeColor=none;fillColor=none;align=left;verticalAlign=middle;spacingLeft=4;spacingRight=4;overflow=hidden;rotatable=0;points=[[0,0.5],[1,0.5]];portConstraint=eastwest;" parent="dLf7UNA71OGZmiSOI_5H-57" vertex="1">
          <mxGeometry y="29" width="140" height="25" as="geometry" />
        </mxCell>
        <mxCell id="dLf7UNA71OGZmiSOI_5H-59" value="saveAuditLog()" style="text;html=1;strokeColor=none;fillColor=none;align=left;verticalAlign=middle;spacingLeft=4;spacingRight=4;overflow=hidden;rotatable=0;points=[[0,0.5],[1,0.5]];portConstraint=eastwest;" parent="dLf7UNA71OGZmiSOI_5H-57" vertex="1">
          <mxGeometry y="54" width="140" height="25" as="geometry" />
        </mxCell>
        <mxCell id="dLf7UNA71OGZmiSOI_5H-60" value="" style="edgeStyle=orthogonalEdgeStyle;rounded=0;orthogonalLoop=1;jettySize=auto;html=1;entryX=1;entryY=0.5;entryDx=0;entryDy=0;" parent="1" source="dLf7UNA71OGZmiSOI_5H-58" target="dLf7UNA71OGZmiSOI_5H-45" edge="1">
          <mxGeometry relative="1" as="geometry" />
        </mxCell>
        <mxCell id="b52GCULrHhmh10Wu_USz-15" style="edgeStyle=orthogonalEdgeStyle;rounded=0;orthogonalLoop=1;jettySize=auto;html=1;entryX=0;entryY=0.5;entryDx=0;entryDy=0;" edge="1" parent="1" source="b52GCULrHhmh10Wu_USz-8" target="b52GCULrHhmh10Wu_USz-13">
          <mxGeometry relative="1" as="geometry" />
        </mxCell>
        <mxCell id="b52GCULrHhmh10Wu_USz-16" style="edgeStyle=orthogonalEdgeStyle;rounded=0;orthogonalLoop=1;jettySize=auto;html=1;" edge="1" parent="1" source="b52GCULrHhmh10Wu_USz-8" target="b52GCULrHhmh10Wu_USz-14">
          <mxGeometry relative="1" as="geometry" />
        </mxCell>
        <mxCell id="b52GCULrHhmh10Wu_USz-8" value="" style="rounded=1;whiteSpace=wrap;html=1;" vertex="1" parent="1">
          <mxGeometry x="180" y="120" width="120" height="60" as="geometry" />
        </mxCell>
        <mxCell id="b52GCULrHhmh10Wu_USz-9" value="运营端" style="text;html=1;strokeColor=none;fillColor=none;align=center;verticalAlign=middle;whiteSpace=wrap;rounded=0;" vertex="1" parent="1">
          <mxGeometry x="210" y="120" width="60" height="30" as="geometry" />
        </mxCell>
        <mxCell id="b52GCULrHhmh10Wu_USz-10" value="租户端" style="text;html=1;strokeColor=none;fillColor=none;align=center;verticalAlign=middle;whiteSpace=wrap;rounded=0;" vertex="1" parent="1">
          <mxGeometry x="210" y="150" width="60" height="30" as="geometry" />
        </mxCell>
        <mxCell id="b52GCULrHhmh10Wu_USz-13" value="账号密码登录" style="rounded=1;whiteSpace=wrap;html=1;" vertex="1" parent="1">
          <mxGeometry x="350" y="60" width="120" height="60" as="geometry" />
        </mxCell>
        <mxCell id="b52GCULrHhmh10Wu_USz-14" value="扫码登录" style="rounded=1;whiteSpace=wrap;html=1;" vertex="1" parent="1">
          <mxGeometry x="350" y="180" width="120" height="60" as="geometry" />
        </mxCell>
      </root>
    </mxGraphModel>
  </diagram>
</mxfile>
